<global>
amp_veltrack=0
ampeg_release=0.45

<group>
group_label=PP
lpc_hicc1=42
lpc_locc1=0

<region>
hikey=B2
hivel=127
lokey=A#2
loop_end=187140
loop_mode=loop_continuous
loop_start=63239
loop_xfade=23515
lovel=1
lpc=BX3kQpedlMMhC2NDISz5wZ/k4UE5BnLCP2E2QVBsVkBE4IBBO3RPwcHrhsAFVTJB7mnjwKRIh8BRR1NBRi84wFhct8A1BCTAsLfzQAfmuMARq/y9U6eKQLMy7788kZC9
lpc_rms=-50.01
offset=586
pitch_keycenter=A#2
sample=Trombone_Growl_PP_A#3.opus
tune=+13

<region>
hikey=B3
hivel=127
lokey=A#3
loop_end=187778
loop_mode=loop_continuous
loop_start=63455
loop_xfade=23595
lovel=1
lpc=o1NBQ9wkCMSsU/FDZhPgwtbLRELYFBDDuKm5Qmc6TsF2QOA/FpP8wCgqYsGUSPBBBTS/wcrM00DoIJxBUbGiwXn2P0E8PJDBIfYeQe5Eoj/7nLPANweGQQJhqcH7dBNB
lpc_rms=-43.73
offset=349
pitch_keycenter=A#3
sample=Trombone_Growl_PP_A#4.opus
tune=+5

<region>
hivel=127
key=A#4
loop_end=177882
loop_mode=loop_continuous
loop_start=60111
loop_xfade=22352
lovel=1
lpc=2q49Q9/eCsRMdQhEymU3w04TvULr81PDuXwwQ8Toq8JGJ7dCbLgIw2PcBEOKirXCdBuYQjppqcIrx3xCfKrHwZhilkGvSX/BWC4dwcCyVUFhVyXBhlB5Qop8uMJfxCJC
lpc_rms=-35.84
offset=109
sample=Trombone_Growl_PP_A#5.opus
tune=+1

<region>
hikey=C#3
hivel=127
lokey=C3
loop_end=190839
loop_mode=loop_continuous
loop_start=64489
loop_xfade=23980
lovel=1
lpc=zX8RQ/zqx8MHvKZDzAFAwpeaNEFUvZzCWtHEQX2/IkH8Q4JB/tWSwWms9T9pTtM/NaAmwAlkKMB6QC5BczoEvnsQn8BXbpDAYddtP85RnUD9CmfAJPMFQQAXN8FIGJlA
lpc_rms=-47.51
offset=941
pitch_keycenter=C3
sample=Trombone_Growl_PP_C4.opus
tune=+51

<region>
hikey=C#4
hivel=127
lokey=C4
loop_end=187669
loop_mode=loop_continuous
loop_start=63418
loop_xfade=23582
lovel=1
lpc=7AwtQ+6L9MN13sxD9C48wsRBekGegNXC2i4DQrb8q0CqKadBb81DwWfLEcHkLuI/0U8EQNIQCkHEJmlANaLFwIMC9cAAC4C/jrbFP7vi0kAyzhRAl8bSQPNDtcE+ijpB
lpc_rms=-45.76
offset=422
sample=Trombone_Growl_PP_C5.opus
tune=-3

<region>
hikey=D#3
hivel=127
lokey=D3
loop_end=187718
loop_mode=loop_continuous
loop_start=63435
loop_xfade=23588
lovel=1
lpc=ca4TQykvzMNEurBDFuChwgbKE0J8ta7C7yMpQmoas8B1qltBeIrVweiYF0GCwIJB9LpIwXFGVsCBEE5Bnc2BwMXJm8CPd5/AYZkVQWRfocDzIgLA5eZWQThQZsF2OZpA
lpc_rms=-46.42
offset=581
pitch_keycenter=D3
sample=Trombone_Growl_PP_D4.opus
tune=+34

<region>
hikey=D#4
hivel=127
lokey=D4
loop_end=191977
loop_mode=loop_continuous
loop_start=64874
loop_xfade=24123
lovel=1
lpc=6I9WQ4jwG8QkMAtE3Q7FwhDf6EFw7yLDkci/Ql8NgcHcOpBBjviJwcOIGsGeN7ZBB+v2wPzgYb+OoM5AECxCwXqR8UCY5pS/cEJiv2wsRMDQFKZAmk6dP8sLtsC70S5A
lpc_rms=-42.64
pitch_keycenter=D4
sample=Trombone_Growl_PP_D5.opus
tune=-4

<region>
hikey=F2
hivel=127
lokey=E2
loop_end=186984
loop_mode=loop_continuous
loop_start=63187
loop_xfade=23495
lovel=1
lpc=TiuWQkhjMMNUotRCmrVhQOLvmkFeTPnB96bWvgwkDsD5XtxA3cNVv8BMcb3Mb1k9zRqXP3rr2761F1w/fdVIPzyQCcAZu/S/XyMlvorC/j9223a+TSpfPy8u/b5fZtu9
lpc_rms=-55.92
offset=2242
pitch_keycenter=E2
sample=Trombone_Growl_PP_E3.opus
tune=+8

<region>
hikey=F3
hivel=127
lokey=E3
loop_end=193782
loop_mode=loop_continuous
loop_start=65484
loop_xfade=24350
lovel=1
lpc=xwLjQp6olsNszHZDGgdewjnJK0L+bp7CVK0KQqL2kb+k5SxBf06Vwb34iL/cQpFBFCxVwZ8db8Ceg4BBo0CnwGWixsAW79S/ty82QbOe5MBMSrzAN4Y7QTtn98C72hdA
lpc_rms=-48.92
offset=962
pitch_keycenter=E3
sample=Trombone_Growl_PP_E4.opus
tune=+27

<region>
hikey=F4
hivel=127
lokey=E4
loop_end=192628
loop_mode=loop_continuous
loop_start=65094
loop_xfade=24205
lovel=1
lpc=Cul1QwCSMMSPwR9EXvcSw4eEeEIP/kzDAUsJQzNrBcLNuhVCYLYDwgmLg8AjqpY/l0EnweAeY0G2FZhB/APbwKQOI8GSi63Atb+3QO4+oEC3cVTBQ2ufQbp8m8G2kgRB
lpc_rms=-40.97
pitch_keycenter=E4
sample=Trombone_Growl_PP_E5.opus
tune=-7

<region>
hikey=G2
hivel=127
lokey=F#2
loop_end=186326
loop_mode=loop_continuous
loop_start=62964
loop_xfade=23413
lovel=1
lpc=RQKnQooVRsO2JfFCKVuEQAGltkH6hBDCx3cnwN6ytr9aUQBBXK99u5BM4r/uIkdAHTOevxlbBMDFwH5A3vIVvtkNKsClooM9pK3sv3bLiz9tvEQ+Q99IQMfDVsB25oM/
lpc_rms=-54.74
offset=850
pitch_keycenter=F#2
sample=Trombone_Growl_PP_F#3.opus
tune=+30

<region>
hikey=G3
hivel=127
lokey=F#3
loop_end=185303
loop_mode=loop_continuous
loop_start=62619
loop_xfade=23284
lovel=1
lpc=HxYzQ3Np7sM+H79DIjKBwhHhLUIxUOHCqERXQp6HxcCJKFhBy0iWwb2BD0CS51pBOjxIwTkVkMCgKYZB1grOwFcE4r9GMTPAHxpNQLoHgz9p85TAjaMMQZRsJcEEGppA
lpc_rms=-45.68
offset=1779
pitch_keycenter=F#3
sample=Trombone_Growl_PP_F#4.opus
tune=+13

<region>
hikey=G4
hivel=127
lokey=F#4
loop_end=191176
loop_mode=loop_continuous
loop_start=64603
loop_xfade=24022
lovel=1
lpc=oIRwQzhfNsQ7mDZEpQ1rw0basEIicErD4NwCQ7RPLMIoy39C2vuQwmzJ8EEyVdrAVtOjQDG7kUBAPg5BF9HZwOggE8HNr5vAbuOjwMrqX0EweFs/774LQhhFgsK57OdB
lpc_rms=-39.78
offset=137
pitch_keycenter=F#4
sample=Trombone_Growl_PP_F#5.opus

<region>
hikey=A2
hivel=127
lokey=G#2
loop_end=186451
loop_mode=loop_continuous
loop_start=63006
loop_xfade=23429
lovel=1
lpc=7sLQQj7RgcOr7i5DuJ/4wMFK9kFYs0XCPJmKvggW5b99OERBzZQ4wFcKYcCQ6KFAgwfvP0nu8cBxtNhAJ9cNv3e7OMD2hpi/+xMyPuEkvj+qwsu/eSyAQD9qGMCYiyM9
lpc_rms=-51.91
offset=3252
pitch_keycenter=G#2
sample=Trombone_Growl_PP_G#3.opus
tune=+16

<region>
hikey=A3
hivel=127
lokey=G#3
loop_end=192912
loop_mode=loop_continuous
loop_start=65190
loop_xfade=24240
lovel=1
lpc=tx/lQiUEmMPJfHlDsKVTwnteCELtg5jCNAcgQuFLK8DXzZNASH4awQy/k8D2QUVBqMTFwIEIpMCV13lB4LfxwHYHzL8+ozzA6iA+QHL7lz5YMmw//g6eQCI2McHD76dA
lpc_rms=-48.89
offset=347
pitch_keycenter=G#3
sample=Trombone_Growl_PP_G#4.opus
tune=+16

<region>
hikey=A4
hivel=127
lokey=G#4
loop_end=190865
loop_mode=loop_continuous
loop_start=64498
loop_xfade=23983
lovel=1
lpc=vp0sQ309BcTRSgtE82JOw/6btEJDZkPDmjwrQ41gm8LpA4JCdrXiwq571UL21k7CjMIdQl9eKMJxhwlCzCHQwXLpdkBT7zJBwm88wTJKtUFbpBfCxfcvQmN3DMK8KFBB
lpc_rms=-38.80
offset=903
pitch_keycenter=G#4
sample=Trombone_Growl_PP_G#5.opus
tune=+1

<group>
group_label=MF
lpc_hicc1=84
lpc_locc1=43

<region>
hikey=B2
hivel=127
lokey=A#2
loop_end=192019
loop_mode=loop_continuous
loop_start=64888
loop_xfade=24128
lovel=1
lpc=K3MMQ8Tc7MPkRxJEiumbw4L+3UKXzuPCyh6aQqVN9sHFZHdCUqelwhgDUEKT4S/BqhgRwVsXAsB1MNdBvcrtwS0hq0G1k/jB8/cHQq+jQMFoJkXBzFGxQY0/ecH5YIlA
lpc_rms=-37.68
offset=692
pitch_keycenter=A#2
sample=Trombone_Growl_MF_A#3.opus
tune=-16

<region>
hikey=B3
hivel=127
lokey=A#3
loop_end=186854
loop_mode=loop_continuous
loop_start=63143
loop_xfade=23479
lovel=1
lpc=//4uQ5lQIsSy4HBEDNI6xPsJyUNlnYvDXSBpQ8IPFcObtK5Cr9qRwudPW0Jya1dAm8FXwjbUvkFIf5BCBOkHwwXo9EJpkJ/C9IMaQu1rEEDoNQXCRuk6QmfhDsLbVDVB
lpc_rms=-29.90
offset=349
pitch_keycenter=A#3
sample=Trombone_Growl_MF_A#4.opus
tune=-3

<region>
hivel=127
key=A#4
loop_end=186931
loop_mode=loop_continuous
loop_start=63169
loop_xfade=23489
lovel=1
lpc=5eG0QpK2rcNQjRFEpuMMxD5Jt0NTUEzDQLwNQzy2+8LOHetCTe/XwiNyv0JWuKDCq4B8Qk8+Y8KkkpZCeWa0wic8ikLoSRDCjCi1QWG3WsEL3nPBqtg3QrT6J8KrCGdB
lpc_rms=-27.06
offset=303
sample=Trombone_Growl_MF_A#5.opus
tune=-1

<region>
hikey=C#3
hivel=127
lokey=C3
loop_end=194961
loop_mode=loop_continuous
loop_start=65882
loop_xfade=24498
lovel=1
lpc=6H0AQzFB3sMHRRFENRiuw6se8kJoyJzCZ0RvQuAwIMIwAktCah1cwmVaD0LV1zjATxY0wewFPMGoDAhC/AbMwfUKX0F41JfBPpWZQeOuAcEFWg7AQVUPQQ1BCsHeMT5A
lpc_rms=-40.68
offset=664
pitch_keycenter=C3
sample=Trombone_Growl_MF_C4.opus
tune=+19

<region>
hikey=C#4
hivel=127
lokey=C4
loop_end=189750
loop_mode=loop_continuous
loop_start=64121
loop_xfade=23843
lovel=1
lpc=xHrdQlQZ2cNDoTJE8gYgxCP4ukOUtGnDEkRZQwxsNsPMuu5CYp+jwqSRikIkpTjCPYQEQZ6tPT2zMUNCKp/Qwqit2EJFMZPCNLgkQlihscF/b6NAmL4qQY4FScGPqY9A
lpc_rms=-34.27
offset=449
sample=Trombone_Growl_MF_C5.opus
tune=-16

<region>
hikey=D#3
hivel=127
lokey=D3
loop_end=193609
loop_mode=loop_continuous
loop_start=65425
loop_xfade=24328
lovel=1
lpc=idgqQ/aeFsRMuEpEPQsAxNzAQ0OtpAjDWAXtQuHJl8IjtZxCqAK+wuNPdUKQXzpB/Zgqwheumj8MLlxCyMSKwo8wU0KOQSLCfL7wQYvtIMHF0yXBBF2cQREJXcGd8HBA
lpc_rms=-36.75
offset=763
pitch_keycenter=D3
sample=Trombone_Growl_MF_D4.opus
tune=-1

<region>
hikey=D#4
hivel=127
lokey=D4
loop_end=193620
loop_mode=loop_continuous
loop_start=65429
loop_xfade=24329
lovel=1
lpc=kDDnQmzQ2cO+0SVEv9YAxI9tgENJXkXDzhNZQxpEFsOc0o9C/VZ/wnBLgkId9XvBUzgEwjL6F0H8DYFC8UjRwsYTp0JWGDvC74e9QYMxjb7QiOjBNAcnQrHK1sH8nOFA
lpc_rms=-32.57
pitch_keycenter=D4
sample=Trombone_Growl_MF_D5.opus
tune=-2

<region>
hikey=F2
hivel=127
lokey=E2
loop_end=189390
loop_mode=loop_continuous
loop_start=64000
loop_xfade=23798
lovel=1
lpc=d9m6QjDwncMNXMpDXn1lw/aQbUJ5NSHCN0QpQoGZQcFGFKVAa1PAwXIt4EHtOebADrZFwSFh00BeplBBELdKwZVnTMCEoYNA1u7uQLUNMcGcrfW+Zn+FQXCCj8EImstA
lpc_rms=-45.27
offset=1775
pitch_keycenter=E2
sample=Trombone_Growl_MF_E3.opus
tune=-4

<region>
hikey=F3
hivel=127
lokey=E3
loop_end=189701
loop_mode=loop_continuous
loop_start=64105
loop_xfade=23837
lovel=1
lpc=rdsZQ4+MA8RsBCxEBWXbw2C5VUNeAzvDjdYYQ55hzcJOAN1CaJLkwuWZaEI6QrZBtXB2wlMss0Eg/lhCIgKuwisKjkIYZ0PC7iLKQel2UECb1erBqUUfQlPqysH57slA
lpc_rms=-34.96
offset=451
pitch_keycenter=E3
sample=Trombone_Growl_MF_E4.opus
tune=+1

<region>
hikey=F4
hivel=127
lokey=E4
loop_end=188756
loop_mode=loop_continuous
loop_start=63785
loop_xfade=23718
lovel=1
lpc=yozbQvACxsNKhxFE5gzkww1lf0O57DzDg3cnQ3BI+MKC1clCtU60wvnAZEKCkW/BxwuOvyAJx8FIHJVCpIPYwpMnz0I+PInCJW8IQrdSWsGqzAXBWHXTQbCkqMFtkb1A
lpc_rms=-32.05
offset=364
pitch_keycenter=E4
sample=Trombone_Growl_MF_E5.opus
tune=-6

<region>
hikey=G2
hivel=127
lokey=F#2
loop_end=190583
loop_mode=loop_continuous
loop_start=64403
loop_xfade=23948
lovel=1
lpc=jtLfQtSRucNOreJDfG1yw/pBpEKwbo3Cx4c0Qks9d8G6PeFBIS07wucJLkK1TYzBN+lvwEcSkcAZSbRB8jVywegL58ArSTZBS9WNv51LpsDPPAy/cAh/QWeTmcFGAuBA
lpc_rms=-42.69
offset=444
pitch_keycenter=F#2
sample=Trombone_Growl_MF_F#3.opus
tune=-5

<region>
hikey=G3
hivel=127
lokey=F#3
loop_end=189613
loop_mode=loop_continuous
loop_start=64075
loop_xfade=23826
lovel=1
lpc=36QvQ5MWH8RxAmFE2owfxHl8oEO7YnzDxLpXQyKnC8No/+ZCx0bqwhc7j0Jz3lJB/ydIwlHz4cDtVrRCjdrmwsnlskIzQGHCm0+xQUjjeUFulDPCqrNVQqSGD8LTqidB
lpc_rms=-34.50
offset=957
pitch_keycenter=F#3
sample=Trombone_Growl_MF_F#4.opus
tune=+5

<region>
hikey=G4
hivel=127
lokey=F#4
loop_end=191569
loop_mode=loop_continuous
loop_start=64736
loop_xfade=24072
lovel=1
lpc=KynbQmex2sPLGjpErUgxxOpi4ENY44jDIplmQ3ASS8OPQyNDEXgOwzaNA0PlY83CsMKIQowukMJbfPRCq3ciw4qdD0OHXrHCfkFAQqOPz8Fw2Lm/Cp7AQQ0LpsHo/8JA
lpc_rms=-30.52
offset=29
pitch_keycenter=F#4
sample=Trombone_Growl_MF_F#5.opus
tune=-3

<region>
hikey=A2
hivel=127
lokey=G#2
loop_end=193246
loop_mode=loop_continuous
loop_start=65303
loop_xfade=24282
lovel=1
lpc=kXXXQgkytcP1MuFD/o9vwzWZikJ9VYnCwS97QgHn3MGDSrlBhMnrwVCVqkGtcxHBccokQUvoy8HfqQJCe4hwwbn1Lr+NqibBWuHAQTdxisFkg7K/+4NqQelaUcFZJYVA
lpc_rms=-41.48
offset=1394
pitch_keycenter=G#2
sample=Trombone_Growl_MF_G#3.opus
tune=-15

<region>
hikey=A3
hivel=127
lokey=G#3
loop_end=193351
loop_mode=loop_continuous
loop_start=65338
loop_xfade=24296
lovel=1
lpc=ljgWQyrTDMRQpllENK47xAZb7EPIuJvD2G5qQ7CiOcMgchhDsTT5wpuyoUJ9HjXBY6DdwaeXhcHLf9NCNSobw3paCEMaR7DCiD4fQo+ZA0A02KbBvNl4QXxbrcAr6jY/
lpc_rms=-30.69
offset=666
pitch_keycenter=G#3
sample=Trombone_Growl_MF_G#4.opus
tune=-5

<region>
hikey=A4
hivel=127
lokey=G#4
loop_end=190301
loop_mode=loop_continuous
loop_start=64308
loop_xfade=23912
lovel=1
lpc=oSayQpQIr8Oj7RJEdaYKxJmqrUOHKkXDEwsOQwwt5cKcT85CpLjVwgyftELCvlTC7Z0TQne1XMJCO6tCSQzFwrp1s0J9Rp3CuiJ8Qo3S48H7KBnBnOnNQci8ksHa1qpA
lpc_rms=-30.49
offset=338
pitch_keycenter=G#4
sample=Trombone_Growl_MF_G#5.opus
tune=-15

<group>
group_label=FF
lpc_hicc1=127
lpc_locc1=85

<region>
hikey=B2
hivel=127
lokey=A#2
loop_end=192006
loop_mode=loop_continuous
loop_start=64884
loop_xfade=24127
lovel=1
lpc=IYIsQW0I6sHLjxVCU8UKwoky60H0n7vBjaWNQVhzWMGFITFBed0SwVRZ7UDWhLLAGW5/QLnTUcCbbmVAcwaAwGNPhEB8L4nA9JCEQKsnWMD1oAtAKWKuv3VAOD8iMke+
lpc_rms=-30.36
offset=318
pitch_keycenter=A#2
sample=Trombone_Growl_FF_A#3.opus
tune=-18

<region>
hikey=B3
hivel=127
lokey=A#3
loop_end=193362
loop_mode=loop_continuous
loop_start=65342
loop_xfade=24297
lovel=1
lpc=Zmm/QS4OncLoxvJCOuoBwwmf60L2t8LC/SWYQnSBaMIAKC5C3CADwo4tyEF/6JbBBMxpQa58TsFQ41pBm/pswXeZf0EUt4DBNAxkQSrzRcE1+xpBrIfEwC1BVUCjb4u/
lpc_rms=-26.08
pitch_keycenter=A#3
sample=Trombone_Growl_FF_A#4.opus
tune=-8

<region>
hivel=127
key=A#4
loop_end=184953
loop_mode=loop_continuous
loop_start=62500
loop_xfade=23240
lovel=1
lpc=BGZ0QDmjzsAYa6FA0zRcwB0eLUBGibO/DswtP9hC076e7rI+xZusvUFtBD6nveM9am5JvuvQJ74bmRM/bBwDv3P4Wj/z4TC/1Gz9PvCMDb7GjX++0XA9PpQrgjysJ4W9
lpc_rms=-21.94
offset=140
sample=Trombone_Growl_FF_A#5.opus
tune=-14

<region>
hikey=C#3
hivel=127
lokey=C3
loop_end=190624
loop_mode=loop_continuous
loop_start=64417
loop_xfade=23953
lovel=1
lpc=WBUNQT9uscH25tBBOXO2waodmEG8d3TBvxg7QcpKCsGPW9hA0g2qwL1IgkAPNzfAsx8AQNZTAsBX7ytAouc9wIWPTEBYp0nApEEpQKKqAsCIS7A/JI5QvwUb6T4BM9u9
lpc_rms=-32.20
offset=637
pitch_keycenter=C3
sample=Trombone_Growl_FF_C4.opus
tune=-9

<region>
hikey=C#4
hivel=127
lokey=C4
loop_end=192676
loop_mode=loop_continuous
loop_start=65110
loop_xfade=24211
lovel=1
lpc=skokQc8/1sGySwVC/pn3wbzU20GVErjBQ/OOQT0tXcFcDTFBmQ4Iwd0jzkAzcJLA0pQuQMRYBcCfii9AerxUwDX1eUA2IXPA98VFQMlh879zegg/p0q/PqTE8r5d5c4+
lpc_rms=-27.27
offset=288
sample=Trombone_Growl_FF_C5.opus
tune=-16

<region>
hikey=D#3
hivel=127
lokey=D3
loop_end=186401
loop_mode=loop_continuous
loop_start=62990
loop_xfade=23422
lovel=1
lpc=bIY2QWOf58F3rgdCCkrwwXMFy0GmR6TB9Ad+QacyPMEJ8w9BfzfkwIILsEDKJ4PAkjE/QNj6QMA6hm5A1f9/wDOsg0BVeHHA2qdIQHNhIsD/4uc/YWcvv4KWWb6UoYM+
lpc_rms=-28.71
offset=408
pitch_keycenter=D3
sample=Trombone_Growl_FF_D4.opus
tune=-21

<region>
hikey=D#4
hivel=127
lokey=D4
loop_end=191286
loop_mode=loop_continuous
loop_start=64640
loop_xfade=24036
lovel=1
lpc=FsdDQQxsBMKmdiZCDhEYwuKpAkL0RtXB0LCiQZ6CdcFOmz9BissZwaJa90DFjbnAaKOGQDI/ccBOPJlAnW20wDb+u0BUscfAYMPCQKvRjsC/rSJAm62/vxcHXj8vGsu9
lpc_rms=-25.00
pitch_keycenter=D4
sample=Trombone_Growl_FF_D5.opus
tune=-9

<region>
hikey=F2
hivel=127
lokey=E2
loop_end=183516
loop_mode=loop_continuous
loop_start=62015
loop_xfade=23060
lovel=1
lpc=t9AjQZCx08EP0ftBUNTawYoZtUEV4ozB4qtJQUiFCsFjdsVAIviOwAFiTUClv+q/oldBPzcEP7+pCY8/Lsahv88EE0CIkWHA6Fh1QBuOUcCVNxFApnmJv+GnXj5cnWQ9
lpc_rms=-35.42
offset=675
pitch_keycenter=E2
sample=Trombone_Growl_FF_E3.opus
tune=-39

<region>
hikey=F3
hivel=127
lokey=E3
loop_end=192346
loop_mode=loop_continuous
loop_start=64998
loop_xfade=24169
lovel=1
lpc=24AyQVwP58HX8QtCkkD9wVAq2kGD567BtXCGQSaxT8E+HidBK/MJwYmO4UBIharAvRKCQK5fYsCrAmtAZ9FswLHwgUCMbIjAEapzQAREPsAGsxFAKYOnv8HS2D48OnE9
lpc_rms=-30.51
offset=384
pitch_keycenter=E3
sample=Trombone_Growl_FF_E4.opus
tune=-16

<region>
hikey=F4
hivel=127
lokey=E4
loop_end=191471
loop_mode=loop_continuous
loop_start=64703
loop_xfade=24059
lovel=1
lpc=MEFUQZKSEsJDzkFC01g8wiCrJkJOewbCMs3NQc1Tm8Fb9GRBonkuwRf1EUFhOuTAyZS3QGrcq8Dx2L9ADr/YwN4S6UDAauHAMI3dQAAMysBZ6ZxAt0QzwLCyRz8vKjw+
lpc_rms=-26.04
offset=432
pitch_keycenter=E4
sample=Trombone_Growl_FF_E5.opus
tune=-9

<region>
hikey=G2
hivel=127
lokey=F#2
loop_end=194236
loop_mode=loop_continuous
loop_start=65637
loop_xfade=24407
lovel=1
lpc=hVsaQU3IzMF2ZPxB7pjfwXzRtkGDf4zBTjRLQTHHFcEybvBAFR/MwPqHqkByMoPA50I+QDyJLsA1ME5AXL1owMOng0C4rZHAzjqJQHh2VcCn+ANAjYR9v/VM4z550Ce+
lpc_rms=-35.81
offset=42
pitch_keycenter=F#2
sample=Trombone_Growl_FF_F#3.opus
tune=-14

<region>
hikey=G3
hivel=127
lokey=F#3
loop_end=194558
loop_mode=loop_continuous
loop_start=65746
loop_xfade=24447
lovel=1
lpc=pA8cQczczcF8hP9B6nPpwf3MxEGyCZzBPmFuQVFENsFXsg5BTjflwGwhsEAMO3rAFtBAQByfNMC9UkBAi1dKwJH7TEAYflPAces6QFlJFMD5veI/ZQCrv+r2WT+/1nm+
lpc_rms=-30.84
offset=62
pitch_keycenter=F#3
sample=Trombone_Growl_FF_F#4.opus
tune=-17

<region>
hikey=G4
hivel=127
lokey=F#4
loop_end=188985
loop_mode=loop_continuous
loop_start=63863
loop_xfade=23747
lovel=1
lpc=J5UYQWm6y8EL6gJCcPH0wYgazEEdb5rBsYJfQfS4J8HJ2wpByobpwPRwy0A/8aTAJZBYQLtyAcByjto/hdz1v1RLI0AbLzzAYNANQP2kAr+kh92+1MXdPvKNlr3TQ5S8
lpc_rms=-27.27
pitch_keycenter=F#4
sample=Trombone_Growl_FF_F#5.opus
tune=-13

<region>
hikey=A2
hivel=127
lokey=G#2
loop_end=188596
loop_mode=loop_continuous
loop_start=63731
loop_xfade=23698
lovel=1
lpc=mE5MQVphE8L1jUhCMVhBwlsZJ0J3qQfCTKjOQUL8msFP4HVB/qhHwdfZIEErTvXAPwipQLnXesBqpYRA5cqfwO5FxEBdaODAu7zcQLHVvsCK149AnYQmwDuRgT+1K4K+
lpc_rms=-33.81
offset=862
pitch_keycenter=G#2
sample=Trombone_Growl_FF_G#3.opus
tune=-16

<region>
hikey=A3
hivel=127
lokey=G#3
loop_end=196013
loop_mode=loop_continuous
loop_start=66238
loop_xfade=24630
lovel=1
lpc=9NY8QQoQCcLDlz1CV6k5wkVbIELZpQHCeMDIQa3cmMH5mmdBdn0qwRvA/UBCqsbAOw2wQF+pvcBPTdRANWbXwK1j1UCREr/AJLCIQGDFLsBg7O8/X0uav0MrGD8AXR6+
lpc_rms=-30.73
offset=564
pitch_keycenter=G#3
sample=Trombone_Growl_FF_G#4.opus
tune=-24

<region>
hikey=A4
hivel=127
lokey=G#4
loop_end=191371
loop_mode=loop_continuous
loop_start=64669
loop_xfade=24047
lovel=1
lpc=3MckQeuY4MHIJxFCBuIHwmzX6kEvB8DBzLqQQVMQT8HOpiFB5hMAwe+9vUDTEpnAZEFWQGzJ4b+8FvM/TuMkwBxPX0BA0pPAcN+YQAPUbsAZIytAuTXrvxWDjT+K+7i+
lpc_rms=-25.25
offset=266
pitch_keycenter=G#4
sample=Trombone_Growl_FF_G#5.opus
tune=-16

